# xmcd
#
# Track frame offsets: 
#        150
#        13279
#        47115
#        96788
#        106537
#        118985
#        137864
#        140989
#        165216
#        187274
#        204105
#        210255
#        235378
#
# Disc length: 3298 seconds
#
# Revision: 0
# Processed by: cddbd v1.5.1PL0 Copyright (c) Steve Scherf et al.
# Submitted via: ExactAudioCopy v0.95b1
#
DISCID=b80ce00d
DTITLE=Buddy Guy and His Band - Club 47 - Cambridge, MA 07-26-67 Set 2
DYEAR=1967
DGENRE=Blues
TTITLE0=Feel So Fine
TTITLE1=Black Night - Steel Mill
TTITLE2=You're Out Of Sight
TTITLE3=Up In Here
TTITLE4=Mojo
TTITLE5=Stormy Monday
TTITLE6=Satisfaction
TTITLE7=Good Morning Little Schoolgirl
TTITLE8=Land of 1000 Dances
TTITLE9=Way Out In Virginia
TTITLE10=Sweet Sixteen
TTITLE11=First Time I Met You
TTITLE12=I Feel Good
EXTD=
EXTT0=
EXTT1=
EXTT2=
EXTT3=
EXTT4=
EXTT5=
EXTT6=
EXTT7=
EXTT8=
EXTT9=
EXTT10=
EXTT11=
EXTT12=
PLAYORDER=
